<?xml version="1.0" encoding="UTF-8"?>
<svg id="logo" data-name="logo" xmlns="http://www.w3.org/2000/svg" viewBox="0 0 220.26 195.21">
  <defs>
    <style>
      .cls-1 {
        fill: #8c1e1f;
      }

      .cls-2 {
        fill: #2e2e2e;
      }
    </style>
  </defs>
  <g id="Logos">
    <path class="cls-2" d="m42.2.04c5.23-.03,56.23,0,126.27.27,3.46-.93,7.15.22,9.43,2.94,2.19,2.61,2.75,6.25,1.43,9.43-8.95,15.1-17.9,30.2-26.85,45.3-.16.23-2.37,3.32-6.22,3.21-3.19-.09-5.11-2.31-5.4-2.66-8.17-12.91-16.34-25.81-24.51-38.72-1.27-2.6-3.84-4.18-6.45-3.99-2.61.19-4.2,2.08-4.51,2.46-8.4,13.84-16.81,27.68-25.21,41.52-.79,1.1-1.71,2.74-1.95,4.82,0,0-.22,1.93.4,4.01,1.03,3.45,11.85,22.07,27.42,47.1.15.2,2.87,3.98,1.09,8.38-1.76,4.39-6.3,5.24-6.56,5.28-20.07.24-40.15.49-60.22.73-.59-.07-1.48-.24-2.46-.73-1.2-.61-1.96-1.41-2.37-1.91C24.07,108.43,12.59,89.36,1.11,70.29c-.44-.83-1.24-2.64-1.09-5.01.09-1.42.49-2.54.82-3.28C11.3,43.3,21.76,24.61,32.22,5.92c.48-1.03,1.37-2.59,3.01-3.83C37.85.11,40.92.05,42.2.04Z"/>
    <path class="cls-1" d="m178.06,195.17c-5.23.03-56.23,0-126.27-.27-3.46.93-7.15-.22-9.43-2.94-2.19-2.61-2.75-6.25-1.43-9.43,8.95-15.1,17.9-30.2,26.85-45.3.16-.23,2.37-3.32,6.22-3.21,3.19.09,5.11,2.31,5.4,2.66,8.17,12.91,16.34,25.81,24.51,38.72,1.27,2.6,3.84,4.18,6.45,3.99,2.61-.19,4.2-2.08,4.51-2.46,8.4-13.84,16.81-27.68,25.21-41.52.79-1.1,1.71-2.74,1.95-4.82,0,0,.22-1.93-.4-4.01-1.03-3.45-11.85-22.07-27.42-47.1-.15-.2-2.87-3.98-1.09-8.38,1.76-4.39,6.3-5.24,6.56-5.28,20.07-.24,40.15-.49,60.22-.73.59.07,1.48.24,2.46.73,1.2.61,1.96,1.41,2.37,1.91,11.48,19.07,22.96,38.14,34.44,57.21.44.83,1.24,2.64,1.09,5.01-.09,1.42-.49,2.54-.82,3.28-10.46,18.69-20.92,37.38-31.39,56.08-.48,1.03-1.37,2.59-3.01,3.83-2.62,1.99-5.69,2.04-6.97,2.05Z"/>
  </g>
</svg>